<svg xmlns="http://www.w3.org/2000/svg" xmlns:xlink="http://www.w3.org/1999/xlink" width="1080" zoomAndPan="magnify" viewBox="0 0 810 374.999991" height="500" preserveAspectRatio="xMidYMid meet" version="1.0"><defs><g/></defs><g fill="#413b6b" fill-opacity="1"><g transform="translate(27.225108, 238.75455)"><g><path d="M 126.445312 -96.964844 C 114.019531 -96.964844 103.496094 -91.433594 94.96875 -78.097656 C 89.617188 -90.253906 79.730469 -96.964844 64.945312 -96.964844 C 52.335938 -96.964844 42.085938 -90.886719 37.28125 -82.632812 L 36.917969 -93.972656 L 10.792969 -93.972656 L 10.792969 0 L 38.367188 0 L 38.367188 -46.625 C 38.367188 -61.5 47.078125 -71.386719 56.601562 -71.386719 C 65.945312 -71.386719 72.292969 -65.398438 72.292969 -49.796875 L 72.292969 0 L 99.867188 0 L 99.867188 -46.625 C 99.867188 -61.5 108.484375 -71.386719 118.101562 -71.386719 C 127.441406 -71.386719 133.792969 -65.308594 133.792969 -49.796875 L 133.792969 0 L 161.367188 0 L 161.367188 -50.433594 C 161.367188 -79.457031 150.210938 -96.964844 126.445312 -96.964844 Z M 126.445312 -96.964844 "/></g></g></g><g fill="#413b6b" fill-opacity="1"><g transform="translate(200.783386, 238.75455)"><g><path d="M 24.855469 18.867188 L 84.085938 -129.257812 L 53.609375 -129.257812 L -5.804688 18.957031 Z M 24.855469 18.867188 "/></g></g></g><g fill="#bc20dc" fill-opacity="1"><g transform="translate(283.373627, 238.75455)"><g><path d="M 54.515625 2.992188 C 80.273438 2.992188 98.324219 -13.878906 102.769531 -37.007812 L 74.46875 -37.007812 C 71.113281 -26.484375 63.402344 -22.675781 54.605469 -22.675781 C 43.539062 -22.675781 33.015625 -31.292969 33.015625 -46.984375 C 33.015625 -62.585938 43.449219 -71.113281 54.605469 -71.113281 C 63.402344 -71.113281 71.023438 -67.394531 74.46875 -58.503906 L 102.769531 -58.503906 C 97.960938 -80.273438 80.273438 -96.964844 54.515625 -96.964844 C 25.488281 -96.964844 5.351562 -74.199219 5.351562 -46.984375 C 5.351562 -19.59375 25.488281 2.992188 54.515625 2.992188 Z M 54.515625 2.992188 "/></g></g></g><g fill="#bc20dc" fill-opacity="1"><g transform="translate(391.80558, 238.75455)"><g><path d="M 55.238281 2.992188 C 85.082031 2.992188 105.671875 -19.320312 105.671875 -46.984375 C 105.671875 -74.46875 85.082031 -96.964844 55.332031 -96.964844 C 25.761719 -96.964844 5.351562 -74.378906 5.351562 -46.984375 C 5.351562 -19.410156 25.851562 2.992188 55.238281 2.992188 Z M 55.511719 -22.765625 C 42.359375 -22.765625 33.015625 -32.652344 33.015625 -46.984375 C 33.015625 -61.226562 42.359375 -71.203125 55.511719 -71.203125 C 68.664062 -71.203125 78.007812 -61.226562 78.007812 -46.984375 C 78.007812 -32.652344 68.664062 -22.765625 55.511719 -22.765625 Z M 55.511719 -22.765625 "/></g></g></g><g fill="#bc20dc" fill-opacity="1"><g transform="translate(504.500667, 238.75455)"><g><path d="M 50.160156 3.085938 C 64.582031 3.085938 73.925781 -4.625 79.003906 -11.882812 L 79.003906 0 L 105.492188 0 L 105.492188 -127.804688 L 77.734375 -127.804688 L 77.734375 -93.066406 L 78.28125 -82.722656 C 73.746094 -89.347656 63.765625 -96.964844 50.433594 -96.964844 C 22.765625 -96.964844 5.351562 -74.378906 5.351562 -46.984375 C 5.351562 -19.410156 23.3125 3.085938 50.160156 3.085938 Z M 55.332031 -22.585938 C 41.726562 -22.585938 32.835938 -33.199219 32.835938 -46.984375 C 32.835938 -61.40625 42.449219 -71.296875 55.332031 -71.296875 C 68.121094 -71.296875 77.917969 -60.59375 77.917969 -46.984375 C 77.917969 -33.109375 68.03125 -22.585938 55.332031 -22.585938 Z M 55.332031 -22.585938 "/></g></g></g><g fill="#bc20dc" fill-opacity="1"><g transform="translate(622.54736, 238.75455)"><g><path d="M 103.132812 -47.710938 C 103.132812 -74.46875 84.355469 -96.964844 54.96875 -96.964844 C 25.578125 -96.964844 5.351562 -74.378906 5.351562 -46.984375 C 5.351562 -19.59375 25.667969 2.992188 54.96875 2.992188 C 80.183594 2.992188 96.964844 -13.96875 101.136719 -30.660156 L 71.203125 -30.660156 C 69.117188 -25.214844 64.21875 -21.042969 54.421875 -21.042969 C 43.628906 -21.042969 35.558594 -27.484375 33.289062 -40 L 102.589844 -40 C 102.953125 -42.902344 103.132812 -44.71875 103.132812 -47.710938 Z M 34.378906 -58.867188 C 37.824219 -69.753906 46.441406 -74.015625 55.058594 -74.015625 C 65.128906 -74.015625 73.652344 -67.578125 74.5625 -58.867188 Z M 34.378906 -58.867188 "/></g></g></g><g fill="#bc20dc" fill-opacity="1"><g transform="translate(731.704964, 238.75455)"><g><path d="M 25.398438 2.628906 C 34.832031 2.628906 40.910156 -3.808594 40.910156 -11.699219 C 40.910156 -19.5 34.832031 -26.03125 25.488281 -26.03125 C 16.144531 -26.03125 10.160156 -19.5 10.160156 -11.699219 C 10.160156 -3.808594 16.144531 2.628906 25.398438 2.628906 Z M 25.398438 2.628906 "/></g></g></g><g fill="#bc20dc" fill-opacity="1"><g transform="translate(741.764563, 86.507247)"><g><path d="M 0 19.5625 L 28.773438 19.5625 L 28.773438 29.707031 L 36.296875 29.707031 L 36.296875 0.988281 L 28.773438 0.988281 L 28.773438 11.15625 L 0 11.15625 Z M 0 19.5625 "/></g></g></g><g fill="#bc20dc" fill-opacity="1"><g transform="translate(741.764563, 117.692627)"><g><path d="M -0.90625 16.894531 C -0.90625 25.890625 3.042969 32.054688 10.300781 32.054688 C 17.375 32.054688 20.445312 26.421875 21.914062 19.136719 C 22.980469 13.425781 24.128906 11.023438 26.449219 11.023438 C 28.105469 11.023438 29.839844 11.957031 29.839844 16.46875 C 29.839844 20.898438 27.8125 22.339844 25.78125 22.339844 L 25.78125 30.800781 C 32.722656 30.800781 37.207031 26.078125 37.207031 16.574219 C 37.207031 7.179688 32.828125 2.5625 26.503906 2.5625 C 18.816406 2.5625 16.414062 10.089844 14.945312 16.199219 C 13.878906 20.898438 12.839844 23.488281 10.328125 23.488281 C 7.578125 23.488281 6.191406 21.59375 6.191406 16.867188 C 6.191406 12.542969 8.21875 10.117188 11.238281 10.117188 L 11.238281 1.65625 C 5.363281 1.65625 -0.90625 5.765625 -0.90625 16.894531 Z M -0.90625 16.894531 "/></g></g></g><g fill="#bc20dc" fill-opacity="1"><g transform="translate(741.764563, 151.733832)"><g><path d="M 0 10.277344 L 13.238281 18.871094 L 0 27.492188 L 0 37.445312 L 19.058594 24.15625 L 36.296875 36.113281 L 36.296875 26.183594 L 24.957031 18.871094 L 36.296875 11.558594 L 36.296875 1.628906 L 19.058594 13.585938 L 0 0.320312 Z M 0 10.277344 "/></g></g></g></svg>